<?xml version="1.0" standalone="no"?><!DOCTYPE svg PUBLIC "-//W3C//DTD SVG 1.1//EN" "http://www.w3.org/Graphics/SVG/1.1/DTD/svg11.dtd"><svg height="1920" node-id="1" sillyvg="true" template-height="1920" template-width="1920" version="1.1" viewBox="0 0 1920 1920" width="1920" xmlns="http://www.w3.org/2000/svg" xmlns:xlink="http://www.w3.org/1999/xlink"><defs node-id="64"></defs><path d="M 1754.79 1258.39 L 909.41 1783.30 C 891.68 1793.54 869.83 1793.54 852.10 1783.30 L 171.94 1380.49 C 157.93 1372.40 157.93 1352.17 171.94 1344.08 L 1008.32 847.17 C 1026.05 836.93 1047.90 836.93 1065.63 847.17 L 1754.79 1221.98 C 1768.80 1230.07 1768.80 1250.30 1754.79 1258.39 Z" fill="#ebeeff" fill-rule="nonzero" node-id="67" stroke="none" target-height="956.61005" target-width="1610.8701" target-x="157.93" target-y="836.93"></path><g node-id="176"><path d="M 1744.82 1013.93 L 1148.34 669.55 C 1088.33 634.90 1014.40 634.90 954.39 669.55 L 175.18 1129.51 C 131.02 1155.01 131.02 1218.75 175.18 1244.25 L 771.66 1588.63 C 831.67 1623.28 905.60 1623.28 965.61 1588.63 L 1744.82 1128.67 C 1788.99 1103.17 1788.99 1039.42 1744.82 1013.93 Z" fill="#0327f9" fill-rule="nonzero" group-id="1" node-id="71" stroke="none" target-height="988.38" target-width="1657.97" target-x="131.02" target-y="634.9"></path><path d="M 1164.10 877.07 L 978.28 756.93 L 1097.74 687.97 L 1228.76 763.61 Z" fill="#ffffff" fill-rule="nonzero" group-id="1" node-id="73" stroke="none" target-height="189.10004" target-width="250.47998" target-x="978.28" target-y="687.97"></path><path d="M 1310.10 947.60 L 1183.19 883.77 L 1259.54 781.38 L 1429.55 878.63 Z" fill="#ffffff" fill-rule="nonzero" group-id="1" node-id="75" stroke="none" target-height="166.21997" target-width="246.3601" target-x="1183.19" target-y="781.38"></path><path d="M 780.01 1032.78 L 831.72 841.55 L 951.17 772.59 L 1136.99 892.72 Z" fill="#ffffff" fill-rule="nonzero" group-id="1" node-id="77" stroke="none" target-height="260.19" target-width="356.97998" target-x="780.01" target-y="772.59"></path><path d="M 941.82 1126.20 L 810.79 1050.55 L 1167.76 910.49 L 1282.98 963.25 Z" fill="#ffffff" fill-rule="nonzero" group-id="1" node-id="79" stroke="none" target-height="215.70996" target-width="472.19" target-x="810.79" target-y="910.49"></path><path d="M 1103.52 1208.34 L 971.51 1143.34 L 1312.68 980.40 L 1404.72 1034.44 Z" fill="#ffffff" fill-rule="nonzero" group-id="1" node-id="81" stroke="none" target-height="227.93994" target-width="433.20996" target-x="971.51" target-y="980.4"></path><path d="M 633.45 1117.40 L 502.42 1041.75 L 804.61 857.21 L 752.90 1048.43 Z" fill="#ffffff" fill-rule="nonzero" group-id="1" node-id="83" stroke="none" target-height="260.19" target-width="302.18997" target-x="502.42" target-y="857.21"></path><path d="M 751.61 1190.33 L 664.23 1135.17 L 783.68 1066.20 L 914.70 1141.85 Z" fill="#ffffff" fill-rule="nonzero" group-id="1" node-id="85" stroke="none" target-height="124.130005" target-width="250.47003" target-x="664.23" target-y="1066.2"></path><path d="M 1344.14 1249.12 L 1030.39 1289.06 L 1287.86 1136.21 L 1418.88 1211.86 Z" fill="#ffffff" fill-rule="nonzero" group-id="1" node-id="87" stroke="none" target-height="152.8501" target-width="388.49" target-x="1030.39" target-y="1136.21"></path><path d="M 517.66 1219.79 L 355.86 1126.37 L 475.31 1057.41 L 606.34 1133.05 Z" fill="#ffffff" fill-rule="nonzero" group-id="1" node-id="89" stroke="none" target-height="162.38" target-width="250.48004" target-x="355.86" target-y="1057.41"></path><path d="M 648.69 1295.44 L 548.44 1237.56 L 637.11 1150.82 L 724.50 1205.98 Z" fill="#ffffff" fill-rule="nonzero" group-id="1" node-id="91" stroke="none" target-height="144.62" target-width="176.06" target-x="548.44" target-y="1150.82"></path><path d="M 809.41 1388.23 L 678.38 1312.58 L 754.20 1223.13 L 928.86 1319.26 Z" fill="#ffffff" fill-rule="nonzero" group-id="1" node-id="93" stroke="none" target-height="165.09998" target-width="250.47998" target-x="678.38" target-y="1223.13"></path><path d="M 970.13 1481.02 L 839.11 1405.38 L 958.56 1336.41 L 1272.32 1296.48 Z" fill="#ffffff" fill-rule="nonzero" group-id="1" node-id="95" stroke="none" target-height="184.54004" target-width="433.20996" target-x="839.11" target-y="1296.48"></path><path d="M 340.32 1286.64 L 209.29 1210.99 L 328.75 1142.02 L 490.55 1235.44 Z" fill="#ffffff" fill-rule="nonzero" group-id="1" node-id="97" stroke="none" target-height="144.62" target-width="281.26" target-x="209.29" target-y="1142.02"></path><path d="M 502.12 1380.06 L 371.09 1304.41 L 521.32 1253.21 L 621.57 1311.09 Z" fill="#ffffff" fill-rule="nonzero" group-id="1" node-id="99" stroke="none" target-height="126.8501" target-width="250.48001" target-x="371.09" target-y="1253.21"></path><g node-id="180"><path d="M 925.18 1528.27 C 924.98 1528.28 924.79 1528.28 924.59 1528.28 C 908.52 1528.27 892.32 1527.04 876.45 1524.64 C 869.77 1523.63 865.18 1517.40 866.19 1510.72 C 867.20 1504.04 873.43 1499.45 880.11 1500.46 C 894.79 1502.68 909.76 1503.81 924.62 1503.83 C 931.37 1503.84 936.85 1509.32 936.84 1516.07 C 936.83 1522.62 931.66 1527.97 925.18 1528.27 Z M 971.49 1524.85 C 965.30 1525.14 959.77 1520.70 958.84 1514.44 C 957.84 1507.76 962.45 1501.53 969.13 1500.54 C 983.82 1498.35 998.47 1495.03 1012.66 1490.68 C 1019.12 1488.70 1025.96 1492.33 1027.94 1498.79 C 1029.92 1505.25 1026.29 1512.09 1019.83 1514.07 C 1004.48 1518.78 988.64 1522.37 972.74 1524.74 C 972.32 1524.79 971.90 1524.83 971.49 1524.85 Z M 833.56 1514.42 C 832.18 1514.48 830.77 1514.32 829.38 1513.88 C 814.04 1509.14 798.92 1503.20 784.44 1496.23 C 778.35 1493.30 775.80 1485.99 778.73 1479.90 C 781.66 1473.81 788.97 1471.26 795.06 1474.19 C 808.45 1480.64 822.43 1486.13 836.61 1490.51 C 843.06 1492.50 846.68 1499.35 844.69 1505.81 C 843.11 1510.87 838.56 1514.18 833.56 1514.42 Z M 1060.09 1497.69 C 1055.33 1497.91 1050.68 1495.32 1048.49 1490.76 C 1045.57 1484.67 1048.14 1477.36 1054.23 1474.44 C 1065.27 1469.15 1076.11 1463.10 1086.43 1456.48 L 1093.25 1452.11 C 1098.94 1448.46 1106.50 1450.12 1110.15 1455.80 C 1113.80 1461.49 1112.14 1469.05 1106.46 1472.70 L 1099.64 1477.07 C 1088.47 1484.23 1076.75 1490.77 1064.81 1496.49 C 1063.28 1497.23 1061.68 1497.62 1060.09 1497.69 Z M 1139.58 1449.53 C 1135.36 1449.73 1131.15 1447.73 1128.70 1443.91 C 1125.05 1438.22 1126.71 1430.66 1132.39 1427.01 L 1171.54 1401.91 C 1177.23 1398.26 1184.79 1399.92 1188.44 1405.60 C 1192.09 1411.29 1190.43 1418.85 1184.75 1422.50 L 1145.60 1447.60 C 1143.72 1448.80 1141.65 1449.43 1139.58 1449.53 Z M 1217.87 1399.32 C 1213.65 1399.52 1209.44 1397.52 1206.99 1393.70 C 1203.34 1388.01 1205.00 1380.45 1210.68 1376.80 L 1249.83 1351.70 C 1255.52 1348.05 1263.08 1349.71 1266.73 1355.39 C 1270.38 1361.08 1268.72 1368.64 1263.04 1372.29 L 1223.89 1397.39 C 1222.02 1398.60 1219.94 1399.23 1217.87 1399.32 Z M 1296.16 1349.12 C 1291.94 1349.32 1287.73 1347.32 1285.28 1343.50 C 1281.63 1337.81 1283.29 1330.25 1288.97 1326.60 L 1328.12 1301.50 C 1333.81 1297.85 1341.37 1299.51 1345.02 1305.19 C 1348.67 1310.88 1347.01 1318.44 1341.33 1322.09 L 1302.18 1347.19 C 1300.31 1348.40 1298.23 1349.03 1296.16 1349.12 Z M 1374.45 1298.92 C 1370.23 1299.12 1366.02 1297.12 1363.57 1293.30 C 1359.92 1287.61 1361.58 1280.05 1367.26 1276.40 L 1406.41 1251.30 C 1412.10 1247.65 1419.66 1249.31 1423.31 1254.99 C 1426.96 1260.68 1425.30 1268.24 1419.62 1271.89 L 1380.47 1296.99 C 1378.60 1298.20 1376.52 1298.82 1374.45 1298.92 Z M 1452.74 1248.72 C 1448.52 1248.92 1444.31 1246.92 1441.86 1243.10 C 1438.21 1237.41 1439.87 1229.85 1445.55 1226.20 L 1484.70 1201.10 C 1490.39 1197.45 1497.95 1199.11 1501.60 1204.79 C 1505.25 1210.48 1503.59 1218.04 1497.91 1221.69 L 1458.76 1246.79 C 1456.89 1248.00 1454.81 1248.62 1452.74 1248.72 Z M 1531.03 1198.52 C 1526.81 1198.72 1522.60 1196.72 1520.15 1192.90 C 1516.50 1187.21 1518.16 1179.65 1523.84 1176.00 L 1548.11 1160.44 C 1552.47 1157.65 1556.53 1154.47 1560.20 1151.00 C 1565.10 1146.35 1572.84 1146.56 1577.49 1151.46 C 1582.14 1156.36 1581.93 1164.10 1577.03 1168.75 C 1572.25 1173.28 1566.97 1177.41 1561.32 1181.03 L 1537.05 1196.59 C 1535.18 1197.80 1533.11 1198.42 1531.03 1198.52 Z M 1593.33 1132.97 C 1591.98 1133.03 1590.59 1132.87 1589.22 1132.46 C 1582.75 1130.51 1579.10 1123.68 1581.05 1117.21 C 1583.68 1108.52 1584.79 1099.46 1584.37 1090.31 C 1584.17 1085.95 1583.60 1081.58 1582.70 1077.32 C 1581.30 1070.71 1585.52 1064.22 1592.12 1062.82 C 1598.72 1061.41 1605.22 1065.64 1606.62 1072.24 C 1607.80 1077.79 1608.53 1083.49 1608.80 1089.17 C 1609.36 1101.11 1607.90 1112.93 1604.46 1124.29 C 1602.92 1129.38 1598.36 1132.73 1593.33 1132.97 Z M 1574.64 1045.88 C 1571.07 1046.05 1567.45 1044.65 1564.90 1041.76 C 1558.47 1034.48 1550.68 1028.45 1541.75 1023.84 L 1530.62 1018.09 C 1524.62 1014.99 1522.27 1007.61 1525.37 1001.61 C 1528.47 995.61 1535.85 993.26 1541.85 996.36 L 1552.98 1002.11 C 1564.60 1008.12 1574.78 1016.01 1583.22 1025.56 C 1587.69 1030.62 1587.22 1038.35 1582.15 1042.82 C 1579.99 1044.75 1577.33 1045.75 1574.64 1045.88 Z" fill="#f62ea4" fill-rule="nonzero" group-id="1,5" node-id="103" stroke="none" target-height="535.02" target-width="833.56" target-x="775.8" target-y="993.26"></path><path d="M 1495.41 998.05 C 1493.34 998.15 1491.21 997.72 1489.24 996.70 L 1468.29 985.87 C 1462.29 982.77 1459.94 975.39 1463.04 969.39 C 1466.14 963.39 1473.52 961.04 1479.52 964.14 L 1500.47 974.97 C 1506.47 978.07 1508.82 985.45 1505.72 991.45 C 1503.64 995.47 1499.63 997.85 1495.41 998.05 Z" fill="#f62ea4" fill-rule="nonzero" group-id="1,5" node-id="105" stroke="none" target-height="37.110046" target-width="48.880005" target-x="1459.94" target-y="961.04"></path></g><path d="M 662.84 1472.85 L 531.82 1397.20 L 651.27 1328.24 L 782.30 1403.88 Z" fill="#ffffff" fill-rule="nonzero" group-id="1" node-id="108" stroke="none" target-height="144.60999" target-width="250.47998" target-x="531.82" target-y="1328.24"></path><path d="M 823.57 1565.64 L 692.54 1490.00 L 812.00 1421.03 L 943.02 1496.68 Z" fill="#ffffff" fill-rule="nonzero" group-id="1" node-id="110" stroke="none" target-height="144.60999" target-width="250.48004" target-x="692.54" target-y="1421.03"></path></g><g node-id="177"><g node-id="181"><g node-id="186"><path d="M 1474.39 899.32 C 1461.95 882.76 1438.40 869.85 1409.44 863.99 C 1403.93 862.87 1398.22 862.02 1392.35 861.44 C 1386.51 860.86 1380.52 860.55 1374.41 860.55 C 1368.20 860.55 1362.11 860.87 1356.18 861.47 C 1350.31 862.06 1344.60 862.92 1339.09 864.05 C 1310.27 869.93 1286.84 882.81 1274.44 899.32 L 1264.81 899.32 L 1264.81 926.32 C 1264.81 955.22 1295.90 979.75 1339.10 988.57 C 1344.61 989.70 1350.32 990.57 1356.19 991.16 C 1362.12 991.76 1368.21 992.08 1374.42 992.08 C 1380.53 992.08 1386.52 991.77 1392.36 991.19 C 1398.23 990.61 1403.93 989.75 1409.45 988.63 C 1452.80 979.86 1484.03 955.29 1484.03 926.32 L 1484.03 899.32 L 1474.39 899.32 Z" fill="#ebeeff" fill-rule="nonzero" group-id="2,6,11" node-id="119" stroke="none" target-height="131.53003" target-width="219.21997" target-x="1264.81" target-y="860.55"></path><g node-id="189"><path d="M 1484.03 899.32 C 1484.03 935.64 1434.96 965.08 1374.42 965.08 C 1313.88 965.08 1264.81 935.64 1264.81 899.32 C 1264.81 863.00 1313.88 833.56 1374.42 833.56 C 1434.96 833.56 1484.03 863.00 1484.03 899.32 Z" fill="#f62ea4" fill-rule="nonzero" group-id="2,6,11,14" node-id="123" stroke="none" target-height="131.52002" target-width="219.21997" target-x="1264.81" target-y="833.56"></path></g></g></g><path d="M 1367.20 811.54 L 1334.73 792.79 L 1195.33 640.59 L 1359.79 634.58 Z" fill="#0327f9" fill-rule="nonzero" group-id="2" node-id="128" stroke="none" target-height="176.95996" target-width="171.87" target-x="1195.33" target-y="634.58"></path><path d="M 1499.75 569.47 L 1367.20 811.54 L 1239.31 676.23 L 1392.26 653.33 Z" fill="#f62ea4" fill-rule="nonzero" group-id="2" node-id="130" stroke="none" target-height="242.07" target-width="260.43994" target-x="1239.31" target-y="569.47"></path><path d="M 1269.65 685.49 C 1342.95 688.34 1399.78 613.13 1445.71 513.93 C 1491.65 414.71 1512.23 322.66 1462.65 268.53 L 1466.27 260.71 L 1433.17 243.58 C 1430.83 242.28 1428.44 241.06 1425.99 239.92 C 1345.26 202.47 1234.92 269.07 1179.55 388.67 C 1124.18 508.28 1156.17 600.32 1195.33 640.59 L 1265.91 693.59 L 1269.65 685.49 Z" fill="#0327f9" fill-rule="nonzero" group-id="2,7" node-id="134" stroke="none" target-height="491.12003" target-width="388.04993" target-x="1124.18" target-y="202.47"></path><path d="M 1466.43 260.46 C 1547.16 297.91 1567.72 425.23 1512.35 544.84 C 1478.24 618.52 1423.26 672.09 1367.20 693.60 C 1332.26 707.01 1296.90 707.97 1265.90 693.59 C 1185.17 656.14 1164.61 528.82 1219.98 409.21 C 1275.36 289.60 1385.70 223.00 1466.43 260.46 Z" fill="#f62ea4" fill-rule="nonzero" group-id="2,7" node-id="136" stroke="none" target-height="484.96997" target-width="403.11" target-x="1164.61" target-y="223"></path><path d="M 1426.69 345.81 L 1431.49 348.28 L 1436.02 351.07 L 1440.29 354.18 L 1444.32 357.63 L 1448.12 361.42 L 1452.45 366.50 L 1456.40 372.02 L 1459.99 378.00 L 1463.20 384.47 L 1465.91 391.11 L 1468.23 398.11 L 1470.15 405.51 L 1471.67 413.34 L 1472.71 421.15 L 1473.33 429.25 L 1473.52 437.64 L 1473.25 446.36 L 1472.56 454.97 L 1471.41 463.75 L 1469.79 472.73 L 1467.69 481.91 L 1465.18 490.90 L 1462.19 499.96 L 1458.71 509.10 L 1454.71 518.32 L 1450.27 527.35 L 1445.57 535.93 L 1440.61 544.08 L 1435.38 551.81 L 1429.75 559.36 L 1423.96 566.41 L 1418.02 572.98 L 1411.91 579.08 L 1405.45 584.93 L 1398.93 590.23 L 1392.36 595.00 L 1385.73 599.28 L 1378.79 603.19 L 1371.91 606.52 L 1365.07 609.29 L 1358.26 611.53 L 1351.25 613.28 L 1344.37 614.43 L 1337.61 614.99 L 1330.93 614.98 L 1325.59 614.55 L 1320.35 613.71 L 1315.21 612.47 L 1310.15 610.83 L 1305.16 608.77 L 1300.36 606.30 L 1295.83 603.51 L 1291.55 600.40 L 1287.52 596.96 L 1283.73 593.17 L 1279.40 588.09 L 1275.44 582.57 L 1271.86 576.59 L 1268.64 570.11 L 1265.94 563.48 L 1263.62 556.47 L 1261.69 549.07 L 1260.18 541.25 L 1259.14 533.43 L 1258.52 525.34 L 1258.33 516.94 L 1258.59 508.22 L 1259.29 499.62 L 1260.44 490.83 L 1262.06 481.86 L 1264.16 472.68 L 1266.66 463.69 L 1269.65 454.63 L 1273.14 445.49 L 1277.14 436.26 L 1281.58 427.24 L 1286.28 418.66 L 1291.24 410.51 L 1296.47 402.77 L 1302.10 395.22 L 1307.88 388.18 L 1313.83 381.61 L 1319.93 375.50 L 1326.40 369.65 L 1332.92 364.35 L 1339.49 359.58 L 1346.11 355.31 L 1353.05 351.39 L 1359.94 348.06 L 1366.77 345.29 L 1373.58 343.05 L 1380.60 341.30 L 1387.47 340.16 L 1394.24 339.60 L 1400.92 339.60 L 1406.26 340.04 L 1411.50 340.87 L 1416.64 342.11 L 1421.70 343.75 L 1426.69 345.81 Z" fill="#ffffff" fill-rule="nonzero" group-id="2,7,12" node-id="140" stroke="none" target-height="275.39398" target-width="215.18433" target-x="1258.331" target-y="339.5952"></path></g><g node-id="178"><path d="M 685.34 1160.29 L 1001.01 978.04 C 1012.33 971.51 1026.47 979.67 1026.47 992.74 L 1026.47 1159.78 L 1026.47 1259.62 L 975.06 1208.21 L 689.14 1373.29 C 677.82 1379.82 663.68 1371.66 663.68 1358.59 L 663.68 1197.82 C 663.68 1182.33 671.94 1168.03 685.34 1160.29 Z" fill="#f62ea4" fill-rule="nonzero" group-id="3" node-id="147" stroke="none" target-height="408.30994" target-width="362.78998" target-x="663.68" target-y="971.51"></path><g node-id="183"><path d="M 813.54 1230.13 L 707.76 1291.20 C 703.08 1293.90 700.20 1298.89 700.20 1304.29 C 700.20 1307.84 704.04 1310.06 707.12 1308.28 L 812.90 1247.21 C 817.58 1244.51 820.46 1239.52 820.46 1234.12 C 820.46 1230.57 816.62 1228.35 813.54 1230.13 Z" fill="#fbfafb" fill-rule="nonzero" group-id="3,8" node-id="151" stroke="none" target-height="81.71008" target-width="120.26001" target-x="700.2" target-y="1228.35"></path><path d="M 885.05 1143.94 L 707.76 1246.30 C 703.08 1249.00 700.20 1253.99 700.20 1259.39 L 700.20 1259.39 C 700.20 1262.94 704.04 1265.16 707.12 1263.38 L 884.41 1161.02 C 889.09 1158.32 891.97 1153.33 891.97 1147.93 L 891.97 1147.93 C 891.97 1144.39 888.12 1142.17 885.05 1143.94 Z" fill="#fbfafb" fill-rule="nonzero" group-id="3,8" node-id="153" stroke="none" target-height="122.98999" target-width="191.76996" target-x="700.2" target-y="1142.17"></path><path d="M 915.38 1089.52 C 915.38 1085.97 911.54 1083.75 908.46 1085.53 L 707.76 1201.40 C 703.08 1204.10 700.20 1209.09 700.20 1214.49 C 700.20 1218.04 704.04 1220.26 707.12 1218.48 L 907.82 1102.61 C 912.49 1099.91 915.38 1094.92 915.38 1089.52 Z" fill="#fbfafb" fill-rule="nonzero" group-id="3,8" node-id="155" stroke="none" target-height="136.51001" target-width="215.18" target-x="700.2" target-y="1083.75"></path></g></g><g node-id="179"><g node-id="184"><g node-id="188"><path d="M 487.64 681.98 L 370.34 749.70 C 364.48 753.09 364.48 761.55 370.34 764.94 L 487.64 832.67 C 496.68 837.89 507.83 837.89 516.87 832.67 L 634.17 764.94 C 640.03 761.55 640.03 753.09 634.17 749.70 L 516.87 681.98 C 507.83 676.76 496.69 676.76 487.64 681.98 Z" fill="#ebeeff" fill-rule="nonzero" group-id="4,9,13" node-id="165" stroke="none" target-height="161.13" target-width="275.55002" target-x="364.48" target-y="676.76"></path></g></g><g node-id="185"><path d="M 487.64 612.79 L 370.34 680.51 C 364.48 683.90 364.48 692.36 370.34 695.75 L 487.64 763.47 C 496.68 768.69 507.83 768.69 516.87 763.47 L 634.17 695.75 C 640.03 692.36 640.03 683.90 634.17 680.51 L 516.87 612.79 C 507.83 607.56 496.69 607.56 487.64 612.79 Z" fill="#f62ea4" fill-rule="nonzero" group-id="4,10" node-id="171" stroke="none" target-height="161.13" target-width="275.55002" target-x="364.48" target-y="607.56"></path></g><path d="M 542.82 724.06 C 534.42 728.91 525.27 728.48 515.37 722.76 L 437.63 677.88 C 432.98 675.20 430.64 672.41 430.61 669.51 C 430.58 666.61 432.27 664.18 435.68 662.21 C 439.09 660.24 443.33 659.25 448.39 659.24 C 453.45 659.23 458.31 660.57 462.95 663.25 L 525.99 699.65 L 539.51 691.85 C 543.45 689.58 547.88 688.68 552.82 689.15 C 557.75 689.63 562.24 691.03 566.28 693.36 C 570.32 695.69 572.78 698.30 573.65 701.18 C 574.52 704.06 572.99 706.63 569.06 708.91 L 542.82 724.06 Z" fill="#ffffff" fill-rule="nonzero" group-id="4" node-id="174" stroke="none" target-height="69.67999" target-width="143.94003" target-x="430.58" target-y="659.23"></path></g></svg>