<svg xmlns="http://www.w3.org/2000/svg" xmlns:xlink="http://www.w3.org/1999/xlink" viewBox="0 0 230 80" preserveAspectRatio="xMidYMid" width="230" height="80" style="display:block;shape-rendering:auto;background-position-x:0%;background-position-y:0%;background-size:auto;background-origin:padding-box;background-clip:border-box;background:scroll transparent none repeat;width:230px;height:80px;;animation:none"><style type="text/css">.ld-text text {
    text-anchor: middle;
    dominant-baseline: middle;
    font-size: 80px;
    opacity: 0;
    user-select: none;
    pointer-events: none;
  }</style>


<g class="ld-text" style="transform-origin:115px 40px;transform:matrix(1, 0, 0, 1, 0, 0);;animation:none"><g transform="matrix(1,0,0,1,115,40)" style="transform:matrix(1, 0, 0, 1, 115, 40);;animation:none"><g transform="matrix(1,0,0,1,0,0)" style="transform:matrix(1, 0, 0, 1, 0, 0);;animation:none"><g class="path" style="animation-duration:100s;animation-timing-function:linear;animation-delay:-55s;animation-iteration-count:infinite;animation-direction:normal;animation-fill-mode:forwards;animation-play-state:paused;animation-name:animate-ztndxkln7r;animation-timeline:auto;animation-range-start:normal;animation-range-end:normal;transform-box:view-box;transform-origin:-86.04px 0.12px;transform:matrix(1, 0, 0, 1, 0, 0);;animation:none"><path d="M32.72 31.12L32.72 31.12L32.64 21.60Q32.64 7.44 31.68 2.80L31.68 2.80Q31.52 2.24 31.52 1.92L31.52 1.92Q31.52 0.56 34.24-0.40Q36.96-1.36 38.56-1.36Q40.16-1.36 40.16-0.40L40.16-0.40Q40.16-0.32 40 0.48L40 0.48Q38.16 10.32 38.16 31.76L38.16 31.76Q38.16 46.40 39.84 52.80L39.84 52.80Q40.16 53.84 40.16 53.92L40.16 53.92Q40.16 55.60 36.48 56.68Q32.80 57.76 31.28 57.76L31.28 57.76Q28.88 57.76 28 56.64L28 56.64Q26.24 54.40 22.28 44.04Q18.32 33.68 15.36 24.72L15.36 24.72L12.32 15.76Q12.16 15.36 11.92 15.36L11.92 15.36Q11.60 15.36 11.20 15.92L11.20 15.92Q10.80 23.36 10.80 30.80Q10.80 38.24 10.92 42.24Q11.04 46.24 11.20 48.32Q11.36 50.40 11.52 51.64Q11.68 52.88 11.80 53.44Q11.92 54 11.92 54.24L11.92 54.24Q11.92 55.76 9.28 56.60Q6.64 57.44 4.52 57.44Q2.40 57.44 2.40 56.48L2.40 56.48Q2.40 56 2.64 55.28Q2.88 54.56 3.20 53.44L3.20 53.44Q4 50.64 4.32 43.24Q4.64 35.84 4.64 26.36Q4.64 16.88 4.40 12.56L4.40 12.56Q4 5.52 2.96 3.12L2.96 3.12Q2.72 2.88 2.72 2.48L2.72 2.48Q2.72 1.20 6.96 0Q11.20-1.20 13.56-1.20Q15.92-1.20 16.32-1.12L16.32-1.12Q17.44-1.20 17.68 0.16L17.68 0.16Q20 8.56 24.20 19.92Q28.40 31.28 31.68 37.28L31.68 37.28Q32.08 37.68 32.32 37.68L32.32 37.68Q32.72 37.68 32.72 31.12" transform="matrix(1,0,0,1,-107.31999969482422,-28.079999923706055)" style="fill:rgb(59, 232, 176);transform:matrix(1, 0, 0, 1, -107.32, -28.08);;animation:none"></path></g>
<g class="path" style="animation-duration:100s;animation-timing-function:linear;animation-delay:-44s;animation-iteration-count:infinite;animation-direction:normal;animation-fill-mode:forwards;animation-play-state:paused;animation-name:animate-ztndxkln7r;animation-timeline:auto;animation-range-start:normal;animation-range-end:normal;transform-box:view-box;transform-origin:-46.84px -0.08px;transform:matrix(1, 0, 0, 1, 0, 0);;animation:none"><path d="M79.68 46.24L79.68 46.24Q79.68 51.84 76.12 54.56Q72.56 57.28 66.16 57.28L66.16 57.28Q55.92 57.28 51.08 50.48Q46.24 43.68 46.24 32.72L46.24 32.72Q46.24 30.96 46.40 27.60L46.40 27.60L41.92 27.60Q41.28 27.60 41.28 27.12L41.28 27.12Q41.28 25.76 42.64 23.84Q44 21.92 45.60 21.92L45.60 21.92L47.12 21.92Q48.16 16.16 50.52 11.76Q52.88 7.36 55.48 4.96Q58.08 2.56 61.20 1.12L61.20 1.12Q66.16-1.28 71.60-1.28Q77.04-1.28 78.40 0.48L78.40 0.48Q79.04 1.36 79.04 3.72Q79.04 6.08 78.48 6.08L78.48 6.08Q78.40 6.08 77.76 5.76L77.76 5.76Q75.68 4.80 72.56 4.80L72.56 4.80Q65.76 4.80 61.96 9.60Q58.16 14.40 56.88 21.92L56.88 21.92Q62.96 21.84 73.36 21.84L73.36 21.84Q74.16 21.84 74.16 22.40L74.16 22.40Q74.16 23.68 72.88 25.64Q71.60 27.60 70 27.60L70 27.60L56.24 27.60Q56.16 28.56 56.16 31.80Q56.16 35.04 57.32 38.60Q58.48 42.16 61.64 44.64Q64.80 47.12 69.84 47.12Q74.88 47.12 78.32 44.88L78.32 44.88Q78.72 44.56 79.04 44.56L79.04 44.56Q79.68 44.56 79.68 46.24" transform="matrix(1,0,0,1,-107.31999969482422,-28.079999923706055)" style="fill:rgb(26, 175, 208);transform:matrix(1, 0, 0, 1, -107.32, -28.08);;animation:none"></path></g>
<g class="path" style="animation-duration:100s;animation-timing-function:linear;animation-delay:-33s;animation-iteration-count:infinite;animation-direction:normal;animation-fill-mode:forwards;animation-play-state:paused;animation-name:animate-ztndxkln7r;animation-timeline:auto;animation-range-start:normal;animation-range-end:normal;transform-box:view-box;transform-origin:-3.24px -0.2px;transform:matrix(1, 0, 0, 1, 0, 0);;animation:none"><path d="M104 10.32L104 10.32Q97.68 18.24 94.88 26.16L94.88 26.16L94.96 26.16Q106.08 26.16 107.72 26.20Q109.36 26.24 109.52 26.08Q109.68 25.92 109.76 25.68L109.76 25.68Q108.40 15.84 107.60 12.28Q106.80 8.72 106 8.72Q105.20 8.72 104 10.32 zM96.88 48L96.88 48L98.64 47.68Q99.44 47.68 99.44 48.56L99.44 48.56Q99.44 51.36 98.32 53.28Q97.20 55.20 95.52 56L95.52 56Q92.80 57.36 90.88 57.36L90.88 57.36Q87.20 57.36 85.36 54.60Q83.52 51.84 83.52 46.28Q83.52 40.72 86.56 31.84L86.56 31.84L81.92 31.84Q81.04 31.84 81.04 30.96Q81.04 30.08 82.40 28.12Q83.76 26.16 85.28 26.16L85.28 26.16L88.88 26.16Q94.56 13.52 102.24 4.32L102.24 4.32Q104.24 1.92 107.16-0.16Q110.08-2.24 111.68-2.24Q113.28-2.24 114.08-0.80L114.08-0.80Q116.16 2.56 118.96 23.76L118.96 23.76Q119.92 32.88 122.28 42.60Q124.64 52.32 126.64 53.92L126.64 53.92Q127.12 54.24 127.12 54.72L127.12 54.72Q127.12 55.92 123.72 56.96Q120.32 58 118.52 58Q116.72 58 115.76 57.56Q114.80 57.12 114.56 56.64L114.56 56.64Q113.12 53.52 111.68 41.76L111.68 41.76L111.20 38Q110.88 34.24 110.56 32.32L110.56 32.32L110 31.92L93.28 31.84Q92.32 35.92 92.32 38.96Q92.32 42 92.52 43.40Q92.72 44.80 93.84 46.40Q94.96 48 96.88 48" transform="matrix(1,0,0,1,-107.31999969482422,-28.079999923706055)" style="fill:rgb(106, 103, 206);transform:matrix(1, 0, 0, 1, -107.32, -28.08);;animation:none"></path></g>
<g class="path" style="animation-duration:100s;animation-timing-function:linear;animation-delay:-22s;animation-iteration-count:infinite;animation-direction:normal;animation-fill-mode:forwards;animation-play-state:paused;animation-name:animate-ztndxkln7r;animation-timeline:auto;animation-range-start:normal;animation-range-end:normal;transform-box:view-box;transform-origin:32.96px -0.36px;transform:matrix(1, 0, 0, 1, 0, 0);;animation:none"><path d="M133.68-0.80L133.68-0.80L145.20-0.16Q152.88-0.16 156.24-2L156.24-2Q156.72-2.32 157.08-2.32Q157.44-2.32 157.44-1.20Q157.44-0.08 156.08 2.48L156.08 2.48Q154.08 6.40 150.32 6.40L150.32 6.40L145.92 6.32Q145.28 6.32 145.12 7.04L145.12 7.04Q144.56 18.80 144.56 32.44Q144.56 46.08 145.68 52.96L145.68 52.96L145.68 53.36Q145.68 55.36 141.88 56.56Q138.08 57.76 134.72 57.76L134.72 57.76Q133.12 57.76 133.12 56.88L133.12 56.88Q133.12 56.64 133.36 55.76L133.36 55.76Q134.24 54 134.92 38.72Q135.60 23.44 135.60 15.68L135.60 15.68L135.44 6.96Q135.44 6.48 134.96 6.40L134.96 6.40Q133.28 6.08 131.12 6.08L131.12 6.08Q126.80 6.08 124.72 7.84L124.72 7.84Q124.16 8.24 123.64 8.24Q123.12 8.24 123.12 7.60L123.12 7.60Q123.12 6.64 124.12 4.96Q125.12 3.28 126.24 2.08L126.24 2.08Q128.96-0.80 133.68-0.80" transform="matrix(1,0,0,1,-107.31999969482422,-28.079999923706055)" style="fill:rgb(255, 185, 0);transform:matrix(1, 0, 0, 1, -107.32, -28.08);;animation:none"></path></g>
<g class="path" style="animation-duration:100s;animation-timing-function:linear;animation-delay:-11s;animation-iteration-count:infinite;animation-direction:normal;animation-fill-mode:forwards;animation-play-state:paused;animation-name:animate-ztndxkln7r;animation-timeline:auto;animation-range-start:normal;animation-range-end:normal;transform-box:view-box;transform-origin:71.56px 0.24px;transform:matrix(1, 0, 0, 1, 0, 0);;animation:none"><path d="M161.04 42.24L161.04 42.24L161.60 19.76Q161.60 14.56 161.36 11.20L161.36 11.20Q160.96 5.20 160 3.68L160 3.68L159.68 3.20Q159.28 2.88 159.28 2.40L159.28 2.40Q159.28 0.88 163.28-0.04Q167.28-0.96 170-0.96Q172.72-0.96 172.72 0.56L172.72 0.56L172.64 1.44Q171.52 9.36 171.28 20.20Q171.04 31.04 171.04 34.40Q171.04 37.76 171.28 40Q171.52 42.24 171.56 42.60Q171.60 42.96 171.96 43.96Q172.32 44.96 172.88 45.76L172.88 45.76Q174.32 47.68 176.96 47.68Q179.60 47.68 181.40 46.48Q183.20 45.28 184.08 43.52L184.08 43.52Q185.92 39.76 186.32 37.04L186.32 37.04L186.48 35.84Q186.88 30.16 186.88 22.40Q186.88 14.64 186.80 12.24Q186.72 9.84 186.56 8.28Q186.40 6.72 186.28 5.52Q186.16 4.32 186.08 3.64Q186 2.96 186 2.88L186 2.88Q186 2 186.88 1.44L186.88 1.44Q188.24 0.40 191.08-0.32Q193.92-1.04 196.16-1.04Q198.40-1.04 198.40 0L198.40 0Q198.40 0.16 198 2.64L198 2.64Q196.24 13.52 196.24 32.88L196.24 32.88Q196.24 47.20 198.16 53.28L198.16 53.28Q198.48 54.24 198.48 54.60Q198.48 54.96 197.84 55.52L197.84 55.52Q195.44 57.36 191.48 57.36Q187.52 57.36 187.20 55.36L187.20 55.36Q186.80 54.32 186.72 51.20L186.72 51.20L186.64 50.24Q186.64 49.52 186.32 49.52L186.32 49.52L185.44 50.08Q183.92 52.64 181.92 54.36Q179.92 56.08 178.08 56.72L178.08 56.72Q175.44 57.68 172.92 57.68Q170.40 57.68 167.88 56.36Q165.36 55.04 164.12 53.28Q162.88 51.52 162.08 49.12L162.08 49.12Q161.04 45.68 161.04 42.24" transform="matrix(1,0,0,1,-107.31999969482422,-28.079999923706055)" style="fill:rgb(252, 99, 107);transform:matrix(1, 0, 0, 1, -107.32, -28.08);;animation:none"></path></g>
<g class="path" style="animation-duration:100s;animation-timing-function:linear;animation-delay:0s;animation-iteration-count:infinite;animation-direction:normal;animation-fill-mode:forwards;animation-play-state:paused;animation-name:animate-ztndxkln7r;animation-timeline:auto;animation-range-start:normal;animation-range-end:normal;transform-box:view-box;transform-origin:103.12px 0.28px;transform:matrix(1, 0, 0, 1, 0, 0);;animation:none"><path d="M215.84 20.72L215.84 20.72Q215.84 45.52 216.96 53.20L216.96 53.20Q216.96 55.12 213.28 56.36Q209.60 57.60 207.20 57.60Q204.80 57.60 204.80 56.88L204.80 56.88Q204.80 56.40 205.04 55.68L205.04 55.68Q206.56 52.32 206.56 28.64L206.56 28.64Q206.56 6.24 204.64 3.76L204.64 3.76L204.32 3.28Q203.84 2.88 203.84 2.28Q203.84 1.68 204.72 1.28L204.72 1.28Q205.92 0.56 209-0.16Q212.08-0.88 214.56-0.88Q217.04-0.88 217.04 0.24L217.04 0.24L217.04 0.48Q216.08 8.80 215.84 20.72" transform="matrix(1,0,0,1,-107.31999969482422,-28.079999923706055)" style="fill:rgb(59, 232, 176);transform:matrix(1, 0, 0, 1, -107.32, -28.08);;animation:none"></path></g></g>
<text font-size="80" font-family="Aladin" fill="#3be8b0" dy="0.35em" style="fill:rgb(59, 232, 176);opacity:0;;animation:none">NEATUI</text></g></g>
<STYLE type="text/css">@keyframes animate-ztndxkln7r { 0.00% {animation-timing-function: cubic-bezier(0.33,0.00,0.67,0.00);transform: translate(0.00px,0.00px) rotate(0.00deg) scale(1.00, 1.00) skew(0deg, 0.00deg) ;opacity: 1.00;}50.00% {animation-timing-function: cubic-bezier(0.33,0.00,0.67,0.00);transform: translate(0.00px,0.00px) rotate(0.00deg) ;}100.00% {animation-timing-function: cubic-bezier(0.33,0.00,0.67,0.00);transform: translate(0.00px,0.00px) rotate(0.00deg) ;} }</STYLE><!-- [ldio] generated by https://loading.io --></svg>