<?xml version="1.0" standalone="no"?><!DOCTYPE svg PUBLIC "-//W3C//DTD SVG 1.1//EN" "http://www.w3.org/Graphics/SVG/1.1/DTD/svg11.dtd"><svg height="1920" node-id="1" sillyvg="true" template-height="1920" template-width="1920" version="1.1" viewBox="0 0 1920 1920" width="1920" xmlns="http://www.w3.org/2000/svg" xmlns:xlink="http://www.w3.org/1999/xlink"><defs node-id="88"></defs><g node-id="243"><path d="M 1393.50 90.16 L 1368.47 1385.07 C 1367.88 1406.12 1356.11 1425.26 1337.59 1435.27 L 495.96 1905.16 C 456.05 1926.74 407.74 1862.99 409.00 1817.63 L 414.52 572.39 C 415.48 537.83 434.81 506.42 465.21 489.97 L 1306.54 36.67 C 1346.46 15.09 1394.76 44.81 1393.50 90.16 Z" fill="#ebeeff" fill-rule="nonzero" group-id="1" node-id="93" stroke="none" target-height="1911.65" target-width="987.02" target-x="407.74" target-y="15.09"></path><path d="M 1498.82 306.03 L 926.53 615.03 C 890.95 634.24 877.77 659.33 876.94 688.94 L 864.43 1138.65 C 863.82 1160.44 887.07 1174.72 906.28 1164.35 L 1478.57 855.34 C 1504.67 841.25 1521.25 814.33 1522.08 784.71 L 1534.59 335.00 C 1535.20 313.22 1522.32 293.34 1498.82 306.03 Z" fill="#f62ea4" fill-rule="nonzero" group-id="1" node-id="95" stroke="none" target-height="881.38" target-width="671.37994" target-x="863.82" target-y="293.34"></path><path d="M 810.46 427.52 L 557.43 564.14 C 539.50 573.82 528.10 592.32 527.54 612.67 L 523.27 766.04 C 522.85 781.01 538.83 790.83 552.03 783.70 L 805.06 647.08 C 822.99 637.40 834.39 618.90 834.95 598.55 L 839.22 445.18 C 839.64 430.20 823.66 420.39 810.46 427.52 Z" fill="#0327f9" fill-rule="nonzero" group-id="1" node-id="97" stroke="none" target-height="370.44" target-width="316.79004" target-x="522.85" target-y="420.39"></path><path d="M 813.69 991.42 L 695.94 1055.00 C 678.01 1064.68 666.61 1083.18 666.05 1103.53 L 663.88 1181.42 C 663.46 1196.39 679.44 1206.21 692.64 1199.08 L 810.39 1135.50 C 828.32 1125.82 839.72 1107.32 840.28 1086.97 L 842.45 1009.08 C 842.87 994.10 826.89 984.29 813.69 991.42 Z" fill="#f62ea4" fill-rule="nonzero" group-id="1" node-id="99" stroke="none" target-height="221.91998" target-width="179.40997" target-x="663.46" target-y="984.29"></path><g node-id="244"><g node-id="250"><path d="M 933.96 971.19 L 1073.14 930.92 L 1174.64 817.79 L 1253.59 856.30 L 1333.96 598.31 L 1476.94 602.29 L 1477.18 593.54 L 1327.56 589.38 L 1248.26 843.96 L 1172.53 807.02 L 1068.29 923.21 L 931.52 962.79 Z" fill="#ffffff" fill-rule="nonzero" group-id="1,2,8" node-id="105" stroke="none" target-height="381.81" target-width="545.66003" target-x="931.52" target-y="589.38"></path><path d="M 949.41 975.12 C 942.98 988.27 930.30 995.28 921.10 990.79 C 911.90 986.30 909.65 972.00 916.08 958.86 C 922.51 945.71 935.19 938.70 944.39 943.19 C 953.59 947.68 955.84 961.97 949.41 975.12 Z" fill="#ffffff" fill-rule="nonzero" group-id="1,2,8" node-id="107" stroke="none" target-height="56.580017" target-width="46.190002" target-x="909.65" target-y="938.7"></path><path d="M 1087.38 935.19 C 1080.95 948.34 1068.27 955.35 1059.07 950.86 C 1049.87 946.37 1047.62 932.07 1054.05 918.93 C 1060.48 905.78 1073.16 898.77 1082.36 903.26 C 1091.57 907.75 1093.82 922.05 1087.38 935.19 Z" fill="#ffffff" fill-rule="nonzero" group-id="1,2,8" node-id="109" stroke="none" target-height="56.579956" target-width="46.19995" target-x="1047.62" target-y="898.77"></path><g node-id="253"><path d="M 1185.18 788.62 L 1187.33 789.96 L 1189.17 791.61 L 1190.72 793.61 L 1191.99 795.99 L 1193.14 799.39 L 1193.75 803.19 L 1193.77 807.45 L 1193.21 811.68 L 1192.02 816.05 L 1190.15 820.57 L 1187.71 824.82 L 1184.99 828.43 L 1181.99 831.47 L 1178.61 834.05 L 1175.23 835.90 L 1171.83 837.07 L 1169.17 837.52 L 1166.64 837.51 L 1164.21 837.08 L 1161.84 836.20 L 1159.69 834.86 L 1157.85 833.20 L 1156.31 831.21 L 1155.03 828.83 L 1153.88 825.42 L 1153.27 821.62 L 1153.25 817.36 L 1153.82 813.13 L 1155.00 808.77 L 1156.87 804.24 L 1159.31 800.00 L 1162.03 796.39 L 1165.03 793.35 L 1168.42 790.76 L 1171.79 788.92 L 1175.19 787.74 L 1177.85 787.30 L 1180.38 787.30 L 1182.81 787.74 L 1185.18 788.62 Z" fill="#ffffff" fill-rule="nonzero" group-id="1,2,8,11" node-id="113" stroke="none" target-height="50.22345" target-width="40.52539" target-x="1153.2488" target-y="787.2952"></path></g><path d="M 1184.01 817.49 C 1179.99 825.72 1172.05 830.11 1166.30 827.30 C 1160.55 824.49 1159.14 815.55 1163.16 807.32 C 1167.18 799.09 1175.12 794.70 1180.87 797.51 C 1186.63 800.32 1188.04 809.27 1184.01 817.49 Z" fill="#ffffff" fill-rule="nonzero" group-id="1,2,8" node-id="116" stroke="none" target-height="35.409973" target-width="28.900024" target-x="1159.14" target-y="794.7"></path><path d="M 1267.59 858.26 C 1261.16 871.41 1248.48 878.42 1239.28 873.93 C 1230.08 869.44 1227.83 855.14 1234.26 842.00 C 1240.69 828.85 1253.37 821.84 1262.57 826.33 C 1271.78 830.82 1274.03 845.11 1267.59 858.26 Z" fill="#ffffff" fill-rule="nonzero" group-id="1,2,8" node-id="118" stroke="none" target-height="56.579956" target-width="46.200073" target-x="1227.83" target-y="821.84"></path><path d="M 1341.61 599.14 C 1337.42 607.70 1329.17 612.26 1323.18 609.34 C 1317.19 606.42 1315.73 597.11 1319.91 588.56 C 1324.10 580.00 1332.35 575.44 1338.34 578.36 C 1344.33 581.28 1345.79 590.58 1341.61 599.14 Z" fill="#ffffff" fill-rule="nonzero" group-id="1,2,8" node-id="120" stroke="none" target-height="36.820007" target-width="30.060059" target-x="1315.73" target-y="575.44"></path><path d="M 1493.72 606.05 C 1487.29 619.20 1474.61 626.21 1465.41 621.72 C 1456.21 617.23 1453.96 602.93 1460.39 589.79 C 1466.82 576.64 1479.50 569.63 1488.70 574.12 C 1497.91 578.60 1500.16 592.90 1493.72 606.05 Z" fill="#ffffff" fill-rule="nonzero" group-id="1,2,8" node-id="122" stroke="none" target-height="56.580017" target-width="46.200073" target-x="1453.96" target-y="569.63"></path></g></g><path d="M 832.90 684.81 C 833.05 679.46 829.86 676.91 825.78 679.12 L 729.45 731.13 C 725.37 733.33 721.94 739.46 721.79 744.81 C 721.64 750.16 724.83 752.71 728.91 750.50 L 825.24 698.49 C 829.32 696.28 832.75 690.16 832.90 684.81 Z" fill="#0327f9" fill-rule="nonzero" group-id="1" node-id="126" stroke="none" target-height="75.80005" target-width="111.40997" target-x="721.64" target-y="676.91"></path><path d="M 779.77 751.46 C 779.92 746.11 776.73 743.56 772.65 745.77 L 676.32 797.78 C 672.24 799.98 668.81 806.11 668.66 811.46 C 668.51 816.81 671.70 819.36 675.78 817.15 L 772.11 765.14 C 776.20 762.93 779.62 756.81 779.77 751.46 Z" fill="#0327f9" fill-rule="nonzero" group-id="1" node-id="128" stroke="none" target-height="75.79999" target-width="111.40997" target-x="668.51" target-y="743.56"></path><path d="M 839.47 784.86 C 839.88 770.03 831.04 762.96 819.71 769.08 L 552.61 913.30 C 541.29 919.41 531.78 936.39 531.37 951.22 C 530.96 966.05 539.80 973.12 551.13 967.00 L 818.23 822.78 C 829.55 816.66 839.06 799.69 839.47 784.86 Z" fill="#0327f9" fill-rule="nonzero" group-id="1" node-id="130" stroke="none" target-height="210.15997" target-width="308.91998" target-x="530.96" target-y="762.96"></path><path d="M 1525.18 84.59 C 1525.59 69.76 1516.74 62.69 1505.42 68.81 L 895.69 398.03 C 884.37 404.14 874.86 421.12 874.45 435.95 C 874.04 450.78 882.89 457.85 894.21 451.73 L 1503.95 122.51 C 1515.26 116.39 1524.77 99.42 1525.18 84.59 Z" fill="#0327f9" fill-rule="nonzero" group-id="1" node-id="132" stroke="none" target-height="395.16" target-width="651.55" target-x="874.04" target-y="62.69"></path><path d="M 1542.04 213.89 C 1542.45 199.06 1533.60 191.99 1522.28 198.11 L 1242.90 348.96 C 1231.58 355.07 1222.07 372.05 1221.66 386.88 C 1221.25 401.71 1230.09 408.78 1241.41 402.66 L 1520.80 251.80 C 1532.12 245.70 1541.63 228.72 1542.04 213.89 Z" fill="#0327f9" fill-rule="nonzero" group-id="1" node-id="134" stroke="none" target-height="216.79" target-width="321.19995" target-x="1221.25" target-y="191.99"></path><path d="M 837.22 865.83 C 837.63 851.00 828.78 843.93 817.46 850.05 L 550.36 994.27 C 539.04 1000.38 529.53 1017.36 529.12 1032.19 C 528.71 1047.02 537.56 1054.09 548.88 1047.97 L 815.98 903.75 C 827.30 897.63 836.81 880.66 837.22 865.83 Z" fill="#0327f9" fill-rule="nonzero" group-id="1" node-id="136" stroke="none" target-height="210.15997" target-width="308.91998" target-x="528.71" target-y="843.93"></path><path d="M 709.64 751.36 C 709.79 746.01 706.60 743.46 702.52 745.67 L 676.07 759.95 C 671.99 762.15 668.56 768.28 668.41 773.63 C 668.26 778.98 671.45 781.53 675.53 779.32 L 701.98 765.04 C 706.07 762.83 709.50 756.71 709.64 751.36 Z" fill="#0327f9" fill-rule="nonzero" group-id="1" node-id="138" stroke="none" target-height="38.070007" target-width="41.52997" target-x="668.26" target-y="743.46"></path><path d="M 1532.39 152.41 C 1532.54 147.06 1529.35 144.51 1525.27 146.72 L 1428.94 198.73 C 1424.86 200.93 1421.43 207.06 1421.28 212.41 C 1421.13 217.76 1424.32 220.31 1428.40 218.10 L 1524.73 166.09 C 1528.81 163.88 1532.24 157.76 1532.39 152.41 Z" fill="#0327f9" fill-rule="nonzero" group-id="1" node-id="140" stroke="none" target-height="75.8" target-width="111.410034" target-x="1421.13" target-y="144.51"></path><path d="M 1409.13 218.96 C 1409.28 213.61 1406.09 211.06 1402.01 213.27 L 1375.56 227.55 C 1371.48 229.75 1368.05 235.88 1367.90 241.23 C 1367.75 246.58 1370.94 249.13 1375.02 246.92 L 1401.47 232.64 C 1405.56 230.43 1408.98 224.31 1409.13 218.96 Z" fill="#0327f9" fill-rule="nonzero" group-id="1" node-id="142" stroke="none" target-height="38.070007" target-width="41.53003" target-x="1367.75" target-y="211.06"></path><path d="M 1504.65 96.55 C 1504.80 91.20 1501.61 88.65 1497.53 90.86 L 1449.37 116.86 C 1445.29 119.06 1441.86 125.19 1441.71 130.54 C 1441.56 135.89 1444.75 138.44 1448.83 136.23 L 1496.99 110.23 C 1501.08 108.02 1504.51 101.89 1504.65 96.55 Z" fill="#ffffff" fill-rule="nonzero" group-id="1" node-id="144" stroke="none" target-height="49.79" target-width="63.23999" target-x="1441.56" target-y="88.65"></path><path d="M 917.12 479.09 C 917.27 473.74 914.08 471.19 910.00 473.40 L 883.55 487.68 C 879.47 489.88 876.04 496.01 875.89 501.36 C 875.74 506.71 878.93 509.26 883.01 507.05 L 909.46 492.77 C 913.54 490.56 916.97 484.43 917.12 479.09 Z" fill="#0327f9" fill-rule="nonzero" group-id="1" node-id="146" stroke="none" target-height="38.070007" target-width="41.53003" target-x="875.74" target-y="471.19"></path><path d="M 831.84 722.69 C 831.99 717.34 828.80 714.79 824.72 717.00 L 798.27 731.28 C 794.19 733.48 790.76 739.61 790.61 744.96 C 790.46 750.31 793.65 752.86 797.73 750.65 L 824.18 736.37 C 828.27 734.16 831.70 728.04 831.84 722.69 Z" fill="#0327f9" fill-rule="nonzero" group-id="1" node-id="148" stroke="none" target-height="38.070007" target-width="41.52997" target-x="790.46" target-y="714.79"></path><path d="M 843.82 1370.68 L 590.79 1507.30 C 572.86 1516.98 561.46 1535.48 560.90 1555.83 L 556.63 1709.20 C 556.21 1724.17 572.19 1733.99 585.39 1726.86 L 838.42 1590.24 C 856.35 1580.56 867.75 1562.06 868.31 1541.71 L 872.58 1388.34 C 872.99 1373.37 857.01 1363.55 843.82 1370.68 Z" fill="#f62ea4" fill-rule="nonzero" group-id="1,3" node-id="152" stroke="none" target-height="370.43994" target-width="316.77997" target-x="556.21" target-y="1363.55"></path><path d="M 866.25 1627.98 C 866.40 1622.63 863.21 1620.08 859.13 1622.29 L 762.80 1674.30 C 758.72 1676.50 755.29 1682.63 755.14 1687.98 C 754.99 1693.33 758.18 1695.88 762.26 1693.67 L 858.59 1641.66 C 862.67 1639.45 866.10 1633.32 866.25 1627.98 Z" fill="#f62ea4" fill-rule="nonzero" group-id="1,3" node-id="154" stroke="none" target-height="75.80005" target-width="111.410034" target-x="754.99" target-y="1620.08"></path><path d="M 813.13 1694.62 C 813.28 1689.27 810.09 1686.72 806.01 1688.93 L 709.68 1740.94 C 705.60 1743.14 702.17 1749.27 702.02 1754.62 C 701.87 1759.97 705.06 1762.52 709.14 1760.31 L 805.47 1708.30 C 809.55 1706.09 812.98 1699.97 813.13 1694.62 Z" fill="#f62ea4" fill-rule="nonzero" group-id="1,3" node-id="156" stroke="none" target-height="75.80005" target-width="111.410034" target-x="701.87" target-y="1686.72"></path><path d="M 743.00 1694.53 C 743.15 1689.18 739.96 1686.63 735.88 1688.84 L 709.43 1703.12 C 705.35 1705.32 701.92 1711.45 701.77 1716.80 C 701.62 1722.15 704.81 1724.70 708.89 1722.49 L 735.34 1708.21 C 739.42 1706.00 742.85 1699.87 743.00 1694.53 Z" fill="#f62ea4" fill-rule="nonzero" group-id="1,3" node-id="158" stroke="none" target-height="38.069946" target-width="41.53003" target-x="701.62" target-y="1686.63"></path><path d="M 865.20 1665.86 C 865.35 1660.51 862.16 1657.96 858.08 1660.17 L 831.63 1674.45 C 827.55 1676.65 824.12 1682.78 823.97 1688.13 C 823.82 1693.48 827.01 1696.03 831.09 1693.82 L 857.54 1679.54 C 861.62 1677.33 865.05 1671.20 865.20 1665.86 Z" fill="#f62ea4" fill-rule="nonzero" group-id="1,3" node-id="160" stroke="none" target-height="38.07007" target-width="41.52997" target-x="823.82" target-y="1657.96"></path><path d="M 646.60 1087.58 C 646.75 1082.23 643.56 1079.68 639.48 1081.89 L 543.15 1133.90 C 539.07 1136.10 535.64 1142.23 535.49 1147.58 C 535.34 1152.93 538.53 1155.48 542.61 1153.27 L 638.94 1101.26 C 643.02 1099.05 646.45 1092.93 646.60 1087.58 Z" fill="#0327f9" fill-rule="nonzero" group-id="1" node-id="163" stroke="none" target-height="75.79993" target-width="111.40997" target-x="535.34" target-y="1079.68"></path><path d="M 644.54 1161.57 C 644.69 1156.22 641.50 1153.67 637.42 1155.88 L 541.09 1207.89 C 537.01 1210.09 533.58 1216.22 533.43 1221.57 C 533.28 1226.92 536.47 1229.47 540.55 1227.26 L 636.88 1175.25 C 640.96 1173.05 644.39 1166.92 644.54 1161.57 Z" fill="#0327f9" fill-rule="nonzero" group-id="1" node-id="165" stroke="none" target-height="75.79993" target-width="111.40997" target-x="533.28" target-y="1153.67"></path><path d="M 643.48 1199.46 C 643.63 1194.11 640.44 1191.56 636.36 1193.77 L 578.07 1225.24 C 573.99 1227.44 570.56 1233.57 570.41 1238.92 C 570.26 1244.27 573.45 1246.82 577.53 1244.61 L 635.82 1213.14 C 639.91 1210.93 643.34 1204.80 643.48 1199.46 Z" fill="#0327f9" fill-rule="nonzero" group-id="1" node-id="167" stroke="none" target-height="55.259888" target-width="73.369995" target-x="570.26" target-y="1191.56"></path><path d="M 593.47 1154.22 C 593.62 1148.87 590.43 1146.32 586.35 1148.53 L 544.62 1171.06 C 540.54 1173.26 537.11 1179.39 536.96 1184.74 C 536.81 1190.09 540.00 1192.64 544.08 1190.43 L 585.81 1167.90 C 589.90 1165.69 593.33 1159.57 593.47 1154.22 Z" fill="#0327f9" fill-rule="nonzero" group-id="1" node-id="169" stroke="none" target-height="46.32007" target-width="56.809998" target-x="536.81" target-y="1146.32"></path><path d="M 645.54 1125.46 C 645.69 1120.11 642.50 1117.56 638.42 1119.77 L 611.97 1134.05 C 607.89 1136.25 604.46 1142.38 604.31 1147.73 C 604.16 1153.08 607.35 1155.63 611.43 1153.42 L 637.88 1139.14 C 641.97 1136.93 645.40 1130.81 645.54 1125.46 Z" fill="#0327f9" fill-rule="nonzero" group-id="1" node-id="171" stroke="none" target-height="38.069946" target-width="41.53003" target-x="604.16" target-y="1117.56"></path><path d="M 1295.97 1249.86 L 1178.22 1313.44 C 1160.29 1323.12 1148.89 1341.62 1148.33 1361.97 L 1146.16 1439.86 C 1145.74 1454.83 1161.72 1464.65 1174.92 1457.52 L 1292.67 1393.94 C 1310.60 1384.26 1322.00 1365.76 1322.56 1345.41 L 1324.73 1267.52 C 1325.15 1252.54 1309.17 1242.73 1295.97 1249.86 Z" fill="#0327f9" fill-rule="nonzero" group-id="1" node-id="173" stroke="none" target-height="221.92004" target-width="179.41003" target-x="1145.74" target-y="1242.73"></path><path d="M 1497.61 1142.89 L 1379.86 1206.47 C 1361.93 1216.15 1350.53 1234.65 1349.97 1255.00 L 1347.80 1332.89 C 1347.38 1347.86 1363.36 1357.68 1376.56 1350.55 L 1494.31 1286.97 C 1512.24 1277.29 1523.64 1258.79 1524.20 1238.44 L 1526.37 1160.55 C 1526.79 1145.58 1510.81 1135.77 1497.61 1142.89 Z" fill="#0327f9" fill-rule="nonzero" group-id="1" node-id="175" stroke="none" target-height="221.91003" target-width="179.41003" target-x="1347.38" target-y="1135.77"></path><path d="M 1128.88 1346.02 C 1129.03 1340.67 1125.84 1338.12 1121.76 1340.33 L 1025.43 1392.34 C 1021.35 1394.54 1017.92 1400.67 1017.77 1406.02 C 1017.62 1411.37 1020.81 1413.92 1024.89 1411.71 L 1121.22 1359.70 C 1125.30 1357.49 1128.73 1351.37 1128.88 1346.02 Z" fill="#0327f9" fill-rule="nonzero" group-id="1" node-id="177" stroke="none" target-height="75.80005" target-width="111.410034" target-x="1017.62" target-y="1338.12"></path><path d="M 1126.82 1420.02 C 1126.97 1414.67 1123.78 1412.12 1119.70 1414.33 L 1023.37 1466.34 C 1019.29 1468.54 1015.86 1474.67 1015.71 1480.02 C 1015.56 1485.37 1018.75 1487.92 1022.83 1485.71 L 1119.16 1433.70 C 1123.24 1431.49 1126.67 1425.37 1126.82 1420.02 Z" fill="#0327f9" fill-rule="nonzero" group-id="1" node-id="179" stroke="none" target-height="75.80005" target-width="111.40997" target-x="1015.56" target-y="1412.12"></path><path d="M 1125.76 1457.90 C 1125.91 1452.55 1122.72 1450.00 1118.64 1452.21 L 1060.35 1483.68 C 1056.27 1485.88 1052.84 1492.01 1052.69 1497.36 C 1052.54 1502.71 1055.73 1505.26 1059.81 1503.05 L 1118.10 1471.58 C 1122.19 1469.37 1125.62 1463.25 1125.76 1457.90 Z" fill="#0327f9" fill-rule="nonzero" group-id="1" node-id="181" stroke="none" target-height="55.26001" target-width="73.369995" target-x="1052.54" target-y="1450"></path><path d="M 1075.75 1412.67 C 1075.90 1407.32 1072.71 1404.77 1068.63 1406.98 L 1026.90 1429.51 C 1022.82 1431.71 1019.39 1437.84 1019.24 1443.19 C 1019.09 1448.54 1022.28 1451.09 1026.36 1448.88 L 1068.09 1426.35 C 1072.18 1424.14 1075.61 1418.02 1075.75 1412.67 Z" fill="#0327f9" fill-rule="nonzero" group-id="1" node-id="183" stroke="none" target-height="46.319946" target-width="56.809998" target-x="1019.09" target-y="1404.77"></path><path d="M 1127.82 1383.90 C 1127.97 1378.55 1124.78 1376.00 1120.70 1378.21 L 1094.25 1392.49 C 1090.17 1394.69 1086.74 1400.82 1086.59 1406.17 C 1086.44 1411.52 1089.63 1414.07 1093.71 1411.86 L 1120.16 1397.58 C 1124.25 1395.37 1127.68 1389.25 1127.82 1383.90 Z" fill="#0327f9" fill-rule="nonzero" group-id="1" node-id="185" stroke="none" target-height="38.069946" target-width="41.53003" target-x="1086.44" target-y="1376"></path><path d="M 785.34 959.49 C 785.49 954.14 782.30 951.59 778.22 953.80 L 681.89 1005.81 C 677.81 1008.01 674.38 1014.14 674.23 1019.49 C 674.08 1024.84 677.27 1027.39 681.35 1025.18 L 777.68 973.17 C 781.76 970.96 785.19 964.84 785.34 959.49 Z" fill="#0327f9" fill-rule="nonzero" group-id="1" node-id="187" stroke="none" target-height="75.79999" target-width="111.40997" target-x="674.08" target-y="951.59"></path><path d="M 837.41 930.73 C 837.56 925.38 834.37 922.83 830.29 925.04 L 803.84 939.32 C 799.76 941.52 796.33 947.65 796.18 953.00 C 796.03 958.35 799.22 960.90 803.30 958.69 L 829.75 944.41 C 833.83 942.20 837.26 936.08 837.41 930.73 Z" fill="#0327f9" fill-rule="nonzero" group-id="1" node-id="189" stroke="none" target-height="38.070007" target-width="41.52997" target-x="796.03" target-y="922.83"></path><path d="M 848.30 1181.48 C 848.71 1166.65 839.86 1159.58 828.54 1165.70 L 561.44 1309.92 C 550.12 1316.03 540.61 1333.01 540.20 1347.84 C 539.79 1362.67 548.64 1369.74 559.96 1363.62 L 827.06 1219.40 C 838.38 1213.29 847.89 1196.31 848.30 1181.48 Z" fill="#0327f9" fill-rule="nonzero" group-id="1,4" node-id="193" stroke="none" target-height="210.16003" target-width="308.92004" target-x="539.79" target-y="1159.58"></path><path d="M 846.04 1262.45 C 846.45 1247.62 837.61 1240.55 826.28 1246.67 L 559.18 1390.89 C 547.86 1397.00 538.35 1413.98 537.94 1428.81 C 537.53 1443.64 546.37 1450.71 557.70 1444.59 L 824.80 1300.37 C 836.13 1294.26 845.63 1277.28 846.04 1262.45 Z" fill="#0327f9" fill-rule="nonzero" group-id="1,4" node-id="195" stroke="none" target-height="210.15991" target-width="308.91998" target-x="537.53" target-y="1240.55"></path><path d="M 794.17 1356.12 C 794.32 1350.77 791.13 1348.22 787.05 1350.43 L 690.72 1402.44 C 686.64 1404.64 683.21 1410.77 683.06 1416.12 C 682.91 1421.47 686.10 1424.02 690.18 1421.81 L 786.51 1369.80 C 790.59 1367.59 794.02 1361.47 794.17 1356.12 Z" fill="#0327f9" fill-rule="nonzero" group-id="1,4" node-id="197" stroke="none" target-height="75.80005" target-width="111.410034" target-x="682.91" target-y="1348.22"></path><path d="M 846.24 1327.36 C 846.39 1322.01 843.20 1319.46 839.12 1321.67 L 812.67 1335.95 C 808.59 1338.15 805.16 1344.28 805.01 1349.63 C 804.86 1354.98 808.05 1357.53 812.13 1355.32 L 838.58 1341.04 C 842.66 1338.83 846.09 1332.70 846.24 1327.36 Z" fill="#0327f9" fill-rule="nonzero" group-id="1,4" node-id="199" stroke="none" target-height="38.07007" target-width="41.53003" target-x="804.86" target-y="1319.46"></path><path d="M 945.76 864.17 L 950.22 703.99 L 923.65 718.33 L 919.20 878.51 Z" fill="#ffffff" fill-rule="nonzero" group-id="1,5,9" node-id="206" stroke="none" target-height="174.52002" target-width="31.019958" target-x="919.2" target-y="703.99"></path><path d="M 990.04 830.76 L 992.99 724.77 L 966.43 739.12 L 963.48 845.11 Z" fill="#ffffff" fill-rule="nonzero" group-id="1,5,9" node-id="208" stroke="none" target-height="120.339966" target-width="29.51001" target-x="963.48" target-y="724.77"></path><path d="M 1034.05 807.00 L 1035.98 737.53 L 1009.42 751.87 L 1007.49 821.34 Z" fill="#ffffff" fill-rule="nonzero" group-id="1,5,9" node-id="210" stroke="none" target-height="83.81" target-width="28.48999" target-x="1007.49" target-y="737.53"></path><path d="M 1078.06 783.24 L 1079.30 738.71 L 1052.74 753.05 L 1051.50 797.58 Z" fill="#ffffff" fill-rule="nonzero" group-id="1,5,9" node-id="212" stroke="none" target-height="58.869995" target-width="27.800049" target-x="1051.5" target-y="738.71"></path><path d="M 1122.08 759.47 L 1122.61 740.22 L 1096.05 754.56 L 1095.52 773.81 Z" fill="#ffffff" fill-rule="nonzero" group-id="1,5,9" node-id="214" stroke="none" target-height="33.590027" target-width="27.089966" target-x="1095.52" target-y="740.22"></path><path d="M 1491.29 890.87 L 1238.26 1027.49 C 1220.33 1037.17 1208.93 1055.67 1208.37 1076.02 L 1204.10 1229.39 C 1203.68 1244.36 1219.66 1254.18 1232.86 1247.05 L 1485.89 1110.43 C 1503.82 1100.75 1515.22 1082.25 1515.78 1061.90 L 1520.05 908.53 C 1520.46 893.56 1504.49 883.75 1491.29 890.87 Z" fill="#f62ea4" fill-rule="nonzero" group-id="1,6" node-id="220" stroke="none" target-height="370.43005" target-width="316.7799" target-x="1203.68" target-y="883.75"></path><path d="M 1141.96 1085.46 L 1024.21 1149.04 C 1006.28 1158.72 994.88 1177.22 994.32 1197.57 L 992.15 1275.46 C 991.73 1290.43 1007.71 1300.25 1020.91 1293.12 L 1138.66 1229.54 C 1156.59 1219.86 1167.99 1201.36 1168.55 1181.01 L 1170.72 1103.12 C 1171.13 1088.14 1155.16 1078.33 1141.96 1085.46 Z" fill="#0327f9" fill-rule="nonzero" group-id="1" node-id="223" stroke="none" target-height="221.92004" target-width="179.40002" target-x="991.73" target-y="1078.33"></path><path d="M 1118.95 1276.89 C 1119.10 1271.54 1115.91 1268.99 1111.83 1271.20 L 1015.50 1323.21 C 1011.42 1325.41 1007.99 1331.54 1007.84 1336.89 C 1007.69 1342.24 1010.88 1344.79 1014.96 1342.58 L 1111.29 1290.57 C 1115.38 1288.36 1118.81 1282.24 1118.95 1276.89 Z" fill="#f62ea4" fill-rule="nonzero" group-id="1" node-id="225" stroke="none" target-height="75.80005" target-width="111.40997" target-x="1007.69" target-y="1268.99"></path><path d="M 1171.03 1248.13 C 1171.18 1242.78 1167.99 1240.23 1163.91 1242.44 L 1137.46 1256.72 C 1133.38 1258.92 1129.95 1265.05 1129.80 1270.40 C 1129.65 1275.75 1132.84 1278.30 1136.92 1276.09 L 1163.37 1261.81 C 1167.45 1259.60 1170.88 1253.48 1171.03 1248.13 Z" fill="#f62ea4" fill-rule="nonzero" group-id="1" node-id="227" stroke="none" target-height="38.07007" target-width="41.53003" target-x="1129.65" target-y="1240.23"></path><path d="M 1287.44 1190.19 L 1291.89 1030.01 L 1265.33 1044.35 L 1260.87 1204.53 Z" fill="#ffffff" fill-rule="nonzero" group-id="1,7,10" node-id="233" stroke="none" target-height="174.52002" target-width="31.02002" target-x="1260.87" target-y="1030.01"></path><path d="M 1331.72 1156.78 L 1334.67 1050.79 L 1308.10 1065.14 L 1305.16 1171.13 Z" fill="#ffffff" fill-rule="nonzero" group-id="1,7,10" node-id="235" stroke="none" target-height="120.339966" target-width="29.51001" target-x="1305.16" target-y="1050.79"></path><path d="M 1375.73 1133.02 L 1377.66 1063.55 L 1351.10 1077.89 L 1349.17 1147.36 Z" fill="#ffffff" fill-rule="nonzero" group-id="1,7,10" node-id="237" stroke="none" target-height="83.80994" target-width="28.48999" target-x="1349.17" target-y="1063.55"></path><path d="M 1419.74 1109.26 L 1420.98 1064.73 L 1394.42 1079.07 L 1393.18 1123.60 Z" fill="#ffffff" fill-rule="nonzero" group-id="1,7,10" node-id="239" stroke="none" target-height="58.869995" target-width="27.799927" target-x="1393.18" target-y="1064.73"></path><path d="M 1463.76 1085.49 L 1464.29 1066.24 L 1437.73 1080.58 L 1437.19 1099.83 Z" fill="#ffffff" fill-rule="nonzero" group-id="1,7,10" node-id="241" stroke="none" target-height="33.589966" target-width="27.100098" target-x="1437.19" target-y="1066.24"></path></g></svg>